<svg width="19" height="20" viewBox="0 0 19 20" fill="none" xmlns="http://www.w3.org/2000/svg">
<rect y="0.0299988" width="19" height="19" rx="9.5" fill="#9FAFD8"/>
<path d="M13.7526 10.023C14.0248 10.023 14.2456 9.80226 14.2456 9.53002C14.2456 9.25777 14.0249 9.03705 13.7526 9.03706L9.99295 9.03707L9.99296 5.27741C9.99296 5.00516 9.77225 4.78445 9.5 4.78445C9.22775 4.78445 9.00704 5.00516 9.00704 5.27741L9.00705 9.03707L5.24739 9.03706C4.97514 9.03705 4.75443 9.25777 4.75444 9.53002C4.75444 9.80226 4.97515 10.023 5.24739 10.023L9.00705 10.023L9.00705 13.7826C9.00705 14.0549 9.22776 14.2756 9.5 14.2756C9.77224 14.2756 9.99295 14.0549 9.99295 13.7826L9.99295 10.023L13.7526 10.023Z" fill="white"/>
</svg>
