<svg width="19" height="20" viewBox="0 0 19 20" fill="none" xmlns="http://www.w3.org/2000/svg">
<rect y="0.0299988" width="19" height="19" rx="9.5" fill="url(#paint0_linear_2013_1089)"/>
<path d="M12.8556 6.87153C13.0481 6.67902 13.0481 6.3669 12.8556 6.17439C12.6631 5.98187 12.351 5.98187 12.1585 6.17439L9.50001 8.83286L6.84153 6.17439C6.64902 5.98187 6.3369 5.98187 6.14439 6.17439C5.95187 6.3669 5.95187 6.67902 6.14439 6.87153L8.80287 9.53001L6.14439 12.1885C5.95187 12.381 5.95187 12.6931 6.14439 12.8856C6.3369 13.0781 6.64902 13.0781 6.84153 12.8856L9.50001 10.2271L12.1585 12.8856C12.351 13.0781 12.6631 13.0781 12.8556 12.8856C13.0481 12.6931 13.0481 12.381 12.8556 12.1885L10.1971 9.53001L12.8556 6.87153Z" fill="white"/>
<defs>
<linearGradient id="paint0_linear_2013_1089" x1="18.9983" y1="9.53412" x2="0" y2="9.53412" gradientUnits="userSpaceOnUse">
<stop stop-color="#2F5AB7"/>
<stop offset="0.1181" stop-color="#3656B2"/>
<stop offset="0.2925" stop-color="#4A4BA6"/>
<stop offset="0.5019" stop-color="#6B3991"/>
<stop offset="0.7384" stop-color="#982075"/>
<stop offset="0.9946" stop-color="#D20151"/>
<stop offset="1" stop-color="#D30050"/>
</linearGradient>
</defs>
</svg>
