<svg width="24" height="24" viewBox="0 0 24 24" fill="none" xmlns="http://www.w3.org/2000/svg">
<path d="M17.2688 14.1683C16.8973 13.7814 16.4491 13.5745 15.974 13.5745C15.5029 13.5745 15.0508 13.7775 14.6639 14.1645L13.4534 15.3711C13.3538 15.3175 13.2542 15.2677 13.1584 15.2179C13.0205 15.149 12.8903 15.0838 12.7792 15.0149C11.6453 14.2947 10.6148 13.3562 9.62646 12.1418C9.14761 11.5365 8.82583 11.0271 8.59215 10.5099C8.90628 10.2226 9.19741 9.92379 9.48089 9.63648C9.58815 9.52922 9.69541 9.41813 9.80268 9.31087C10.6071 8.50641 10.6071 7.46444 9.80268 6.65998L8.75688 5.61418C8.63812 5.49542 8.51554 5.37284 8.40061 5.25026C8.17077 5.01275 7.92943 4.76758 7.68043 4.53773C7.30885 4.16998 6.86448 3.97461 6.39712 3.97461C5.92977 3.97461 5.47774 4.16998 5.09466 4.53773C5.09083 4.54156 5.09083 4.54156 5.087 4.54539L3.78454 5.85935C3.2942 6.34969 3.01456 6.94729 2.95326 7.64065C2.86132 8.75924 3.19077 9.80121 3.4436 10.4831C4.06419 12.1571 4.99123 13.7086 6.37414 15.3711C8.05201 17.3746 10.0708 18.9567 12.377 20.0715C13.258 20.489 14.4341 20.9832 15.748 21.0675C15.8285 21.0713 15.9128 21.0752 15.9894 21.0752C16.8743 21.0752 17.6174 20.7572 18.1997 20.1251C18.2036 20.1175 18.2112 20.1136 18.215 20.106C18.4142 19.8646 18.6441 19.6463 18.8854 19.4126C19.0501 19.2555 19.2187 19.0908 19.3834 18.9184C19.7627 18.5239 19.9619 18.0642 19.9619 17.593C19.9619 17.118 19.7588 16.6621 19.3719 16.279L17.2688 14.1683ZM18.6403 18.2021C18.6364 18.2021 18.6364 18.2059 18.6403 18.2021C18.4909 18.363 18.3376 18.5085 18.1729 18.6694C17.9239 18.9069 17.6711 19.1559 17.4336 19.4356C17.0467 19.8493 16.5908 20.0447 15.9932 20.0447C15.9357 20.0447 15.8744 20.0447 15.817 20.0408C14.6792 19.9681 13.622 19.5237 12.829 19.1445C10.6608 18.0948 8.75688 16.6047 7.17477 14.7161C5.86848 13.1416 4.99506 11.6859 4.41662 10.123C4.06036 9.16913 3.93011 8.42596 3.98757 7.72493C4.02588 7.27673 4.19826 6.90515 4.51622 6.58719L5.82251 5.2809C6.01022 5.10469 6.20942 5.00892 6.40478 5.00892C6.64612 5.00892 6.84149 5.15449 6.96408 5.27707C6.96791 5.2809 6.97174 5.28473 6.97557 5.28856C7.20925 5.50692 7.43143 5.73293 7.66511 5.97427C7.78386 6.09685 7.90645 6.21944 8.02903 6.34585L9.07483 7.39165C9.48089 7.79772 9.48089 8.17313 9.07483 8.57919C8.96374 8.69028 8.85648 8.80138 8.74538 8.90864C8.4236 9.23808 8.11714 9.54455 7.78386 9.84335C7.7762 9.85101 7.76854 9.85484 7.76471 9.8625C7.43526 10.1919 7.49655 10.5137 7.56551 10.7321C7.56934 10.7436 7.57317 10.7551 7.577 10.7666C7.84898 11.4255 8.23206 12.046 8.81434 12.7854L8.81817 12.7892C9.87546 14.0917 10.9902 15.1068 12.2199 15.8845C12.377 15.9841 12.5378 16.0645 12.6911 16.1411C12.829 16.2101 12.9592 16.2752 13.0703 16.3442C13.0856 16.3518 13.101 16.3633 13.1163 16.371C13.2465 16.4361 13.3691 16.4667 13.4955 16.4667C13.8135 16.4667 14.0127 16.2675 14.0778 16.2024L15.3879 14.8923C15.5182 14.7621 15.725 14.605 15.9664 14.605C16.2039 14.605 16.3993 14.7544 16.518 14.8846C16.5218 14.8885 16.5218 14.8885 16.5257 14.8923L18.6364 17.0031C19.031 17.3938 19.031 17.796 18.6403 18.2021Z" fill="white" fill-opacity="0.5"/>
<path d="M18.6403 18.2021C18.6364 18.2021 18.6364 18.2059 18.6403 18.2021ZM18.6403 18.2021C18.4909 18.363 18.3376 18.5085 18.1729 18.6694C17.9239 18.9069 17.6711 19.1559 17.4336 19.4356C17.0467 19.8493 16.5908 20.0447 15.9932 20.0447C15.9357 20.0447 15.8744 20.0447 15.817 20.0408C14.6792 19.9681 13.622 19.5237 12.829 19.1444C10.6608 18.0948 8.75688 16.6047 7.17477 14.7161C5.86848 13.1416 4.99506 11.6859 4.41662 10.123C4.06036 9.16913 3.93011 8.42596 3.98757 7.72493C4.02588 7.27673 4.19826 6.90515 4.51622 6.58719L5.82251 5.2809C6.01022 5.10469 6.20942 5.00892 6.40479 5.00892C6.64612 5.00892 6.84149 5.15449 6.96408 5.27707C6.96791 5.2809 6.97174 5.28473 6.97557 5.28856C7.20925 5.50692 7.43143 5.73293 7.66511 5.97427C7.78386 6.09685 7.90645 6.21944 8.02903 6.34585L9.07483 7.39165C9.48089 7.79772 9.48089 8.17313 9.07483 8.57919C8.96374 8.69028 8.85648 8.80138 8.74538 8.90864C8.4236 9.23808 8.11714 9.54455 7.78386 9.84335C7.7762 9.85101 7.76854 9.85484 7.76471 9.8625C7.43526 10.1919 7.49655 10.5137 7.56551 10.7321C7.56934 10.7436 7.57317 10.7551 7.577 10.7666C7.84898 11.4255 8.23206 12.046 8.81434 12.7854L8.81817 12.7892C9.87546 14.0917 10.9902 15.1068 12.2199 15.8845C12.377 15.9841 12.5378 16.0645 12.6911 16.1411C12.829 16.2101 12.9592 16.2752 13.0703 16.3442C13.0856 16.3518 13.101 16.3633 13.1163 16.371C13.2465 16.4361 13.3691 16.4667 13.4955 16.4667C13.8135 16.4667 14.0127 16.2675 14.0778 16.2024L15.3879 14.8923C15.5182 14.7621 15.725 14.605 15.9664 14.605C16.2039 14.605 16.3993 14.7544 16.518 14.8846C16.5218 14.8885 16.5218 14.8885 16.5257 14.8923L18.6364 17.0031C19.031 17.3938 19.031 17.796 18.6403 18.2021ZM17.2688 14.1683C16.8973 13.7814 16.4491 13.5745 15.974 13.5745C15.5029 13.5745 15.0508 13.7775 14.6639 14.1645L13.4534 15.3711C13.3538 15.3175 13.2542 15.2677 13.1584 15.2179C13.0205 15.149 12.8903 15.0838 12.7792 15.0149C11.6453 14.2947 10.6148 13.3562 9.62646 12.1418C9.14761 11.5365 8.82583 11.0271 8.59215 10.5099C8.90628 10.2226 9.19741 9.92379 9.48089 9.63648C9.58815 9.52922 9.69541 9.41813 9.80268 9.31087C10.6071 8.50641 10.6071 7.46444 9.80268 6.65998L8.75688 5.61418C8.63812 5.49542 8.51554 5.37284 8.40061 5.25026C8.17077 5.01275 7.92943 4.76758 7.68043 4.53773C7.30885 4.16998 6.86448 3.97461 6.39712 3.97461C5.92977 3.97461 5.47774 4.16998 5.09466 4.53773C5.09083 4.54156 5.09083 4.54156 5.087 4.54539L3.78454 5.85935C3.2942 6.34969 3.01456 6.94729 2.95326 7.64065C2.86132 8.75924 3.19077 9.80121 3.4436 10.4831C4.06419 12.1571 4.99123 13.7086 6.37414 15.3711C8.05202 17.3746 10.0708 18.9567 12.377 20.0715C13.258 20.489 14.4341 20.9832 15.748 21.0675C15.8285 21.0713 15.9128 21.0752 15.9894 21.0752C16.8743 21.0752 17.6174 20.7572 18.1997 20.1251C18.2036 20.1175 18.2112 20.1136 18.215 20.106C18.4142 19.8646 18.6441 19.6463 18.8854 19.4126C19.0501 19.2555 19.2187 19.0908 19.3834 18.9184C19.7627 18.5239 19.9619 18.0642 19.9619 17.593C19.9619 17.118 19.7588 16.6621 19.3719 16.279L17.2688 14.1683Z" stroke="white" stroke-opacity="0.5" stroke-width="0.3"/>
<path d="M12.7343 7.24246C13.7379 7.41101 14.6497 7.88603 15.3775 8.61388C16.1054 9.34172 16.5765 10.2534 16.7489 11.2571C16.7911 11.5099 17.0094 11.6862 17.2584 11.6862C17.2891 11.6862 17.3159 11.6823 17.3465 11.6785C17.63 11.6325 17.8177 11.3644 17.7717 11.0809C17.5649 9.86654 16.9903 8.75944 16.113 7.8822C15.2358 7.00495 14.1287 6.43034 12.9143 6.22348C12.6308 6.17751 12.3665 6.36521 12.3167 6.64486C12.2669 6.92451 12.4508 7.19649 12.7343 7.24246Z" fill="white" fill-opacity="0.5" stroke="white" stroke-opacity="0.5" stroke-width="0.3"/>
<path d="M21.0525 10.9313C20.7115 8.93167 19.7691 7.11206 18.3211 5.66403C16.8731 4.216 15.0535 3.27363 13.0538 2.93269C12.7742 2.88289 12.5098 3.07443 12.46 3.35407C12.4141 3.63755 12.6018 3.90187 12.8853 3.95167C14.6704 4.2543 16.2985 5.1009 17.5933 6.39187C18.8881 7.68667 19.7308 9.31475 20.0335 11.0999C20.0756 11.3527 20.294 11.5289 20.543 11.5289C20.5736 11.5289 20.6004 11.5251 20.6311 11.5213C20.9107 11.4791 21.1023 11.211 21.0525 10.9313Z" fill="white" fill-opacity="0.5" stroke="white" stroke-opacity="0.5" stroke-width="0.3"/>
</svg>
