<svg width="24" height="24" viewBox="0 0 24 24" fill="none" xmlns="http://www.w3.org/2000/svg">
<mask id="mask0_2013_1326" style="mask-type:luminance" maskUnits="userSpaceOnUse" x="2" y="2" width="20" height="20">
<path d="M2 2H22V22H2V2Z" fill="white"/>
</mask>
<g mask="url(#mask0_2013_1326)">
<path d="M6.99703 12.7779L10.7493 17.7804C11.0343 18.1604 11.4884 18.4062 12 18.4062C12.5116 18.4062 12.9657 18.1604 13.2507 17.7804L17.003 12.7779C17.7861 11.7339 18.25 10.4367 18.25 9.03125C18.25 5.57949 15.4518 2.78125 12 2.78125C8.5482 2.78125 5.75 5.57949 5.75 9.03125C5.75 10.4367 6.21398 11.7339 6.99703 12.7779Z" stroke="white" stroke-opacity="0.5" stroke-width="1.5" stroke-miterlimit="10" stroke-linecap="round" stroke-linejoin="round"/>
<path d="M13.5625 9.03125C13.5625 9.89418 12.8629 10.5938 12 10.5938C11.1371 10.5938 10.4375 9.89418 10.4375 9.03125C10.4375 8.16832 11.1371 7.46875 12 7.46875C12.8629 7.46875 13.5625 8.16832 13.5625 9.03125Z" stroke="white" stroke-opacity="0.5" stroke-width="1.5" stroke-miterlimit="10" stroke-linecap="round" stroke-linejoin="round"/>
<path d="M8.875 21.2188H15.125" stroke="white" stroke-opacity="0.5" stroke-width="1.5" stroke-miterlimit="10" stroke-linecap="round" stroke-linejoin="round"/>
</g>
</svg>
