<svg width="24" height="24" viewBox="0 0 24 24" fill="none" xmlns="http://www.w3.org/2000/svg">
<path fill-rule="evenodd" clip-rule="evenodd" d="M20.725 15.512C20.725 17.3289 19.2417 18.8046 17.4206 18.8046H6.57944C4.75832 18.8046 3.27501 17.3289 3.27501 15.512V8.63834C3.27501 8.03193 3.44164 7.46237 3.73087 6.97354L9.02069 12.2446C9.81209 13.0355 10.8719 13.4713 12.0011 13.4713C13.1281 13.4713 14.1879 13.0355 14.9793 12.2446L20.2691 6.97354C20.5584 7.46237 20.7249 8.03189 20.7249 8.63834V15.512H20.725ZM17.4206 5.34568H6.57944C5.82739 5.34568 5.13316 5.5993 4.57781 6.02127L9.92086 11.3477C10.4739 11.8964 11.2121 12.2008 12.0011 12.2008C12.7879 12.2008 13.5261 11.8964 14.0791 11.3477L19.4221 6.02127C18.8668 5.5993 18.1727 5.34568 17.4206 5.34568ZM17.4206 4.0752H6.57944C4.05485 4.0752 2 6.12276 2 8.63839V15.512C2 18.0299 4.05485 20.0752 6.57944 20.0752H17.4206C19.9452 20.0752 22 18.0299 22 15.512V8.63834C22 6.12271 19.9452 4.0752 17.4206 4.0752Z" fill="white" fill-opacity="0.5"/>
</svg>
